<?xml version="1.0" standalone="no"?>
<!DOCTYPE svg PUBLIC "-//W3C//DTD SVG 20010904//EN"
 "http://www.w3.org/TR/2001/REC-SVG-20010904/DTD/svg10.dtd">
<svg version="1.0" xmlns="http://www.w3.org/2000/svg"
 width="860.000000pt" height="860.000000pt" viewBox="0 0 860.000000 860.000000"
 preserveAspectRatio="xMidYMid meet">
<metadata>
Created by potrace 1.11, written by Peter Selinger 2001-2013
</metadata>
<g transform="translate(0.000000,860.000000) scale(0.100000,-0.100000)"
fill="#000000" stroke="none">
<path d="M3500 7506 c0 -35 11 -45 36 -34 27 13 29 19 12 36 -17 17 -48 15
-48 -2z"/>
<path d="M3720 7460 c0 -5 5 -10 11 -10 5 0 7 5 4 10 -3 6 -8 10 -11 10 -2 0
-4 -4 -4 -10z"/>
<path d="M3532 7427 c2 -12 11 -23 21 -25 25 -5 22 34 -4 41 -16 4 -20 1 -17
-16z"/>
<path d="M3640 7371 c0 -5 -10 -13 -21 -16 -21 -7 -21 -8 7 -34 24 -23 31 -25
42 -14 17 17 6 73 -14 73 -8 0 -14 -4 -14 -9z"/>
<path d="M3714 7337 c-2 -7 0 -24 5 -38 9 -22 10 -21 10 14 1 37 -5 48 -15 24z"/>
<path d="M3733 7226 c-6 -8 -13 -22 -15 -32 -2 -15 4 -20 30 -22 25 -3 32 0
32 15 -1 17 -22 53 -31 53 -2 -1 -9 -7 -16 -14z"/>
<path d="M3893 7073 c-3 -10 -8 -22 -11 -27 -2 -4 5 -5 17 -1 27 8 49 -4 30
-16 -9 -6 -2 -7 18 -3 34 7 32 9 48 -68 4 -21 -18 -53 -31 -46 -15 9 -54 -10
-54 -26 0 -9 -6 -14 -12 -12 -7 1 -10 1 -5 -1 10 -6 9 -31 -3 -38 -16 -10 -48
13 -52 37 -2 18 -11 24 -35 26 -17 2 -37 10 -43 18 -26 30 -50 7 -41 -40 4
-16 -22 -57 -33 -53 -5 2 -19 -6 -29 -16 -19 -19 -21 -19 -33 -2 -7 10 -15 22
-16 27 -2 5 -11 6 -20 3 -16 -6 -25 -26 -34 -80 -3 -16 -10 -32 -15 -33 -19
-7 -31 -43 -19 -57 6 -8 10 -22 8 -32 -5 -25 -55 -26 -61 -1 -8 29 -22 21 -53
-27 -15 -25 -32 -45 -36 -45 -4 0 -8 -13 -8 -29 0 -17 -4 -32 -9 -35 -5 -3 -7
-15 -4 -25 5 -21 -12 -37 -22 -21 -12 20 -45 10 -55 -16 -14 -35 -13 -42 8
-47 14 -4 13 -5 -4 -6 -11 0 -28 -9 -38 -20 -13 -14 -14 -24 -6 -46 6 -15 16
-56 24 -92 11 -54 11 -66 -1 -70 -7 -3 -20 0 -28 7 -12 10 -18 10 -29 1 -12
-10 -19 -8 -34 7 -21 21 -22 83 -1 108 7 8 10 16 8 18 -12 9 -74 36 -85 36
-33 0 -28 -99 7 -136 17 -18 20 -37 21 -130 1 -127 -1 -149 -32 -308 -16 -83
-28 -123 -41 -135 -15 -12 -18 -23 -13 -48 4 -21 1 -39 -6 -48 -7 -9 -16 -32
-21 -53 -18 -86 -30 -120 -58 -172 -17 -30 -31 -63 -31 -72 0 -10 -47 -66
-105 -124 -58 -58 -105 -110 -105 -115 0 -5 -21 -33 -47 -63 -82 -92 -112
-133 -118 -158 -4 -14 -20 -40 -36 -57 -16 -18 -29 -44 -29 -57 0 -14 -5 -34
-11 -45 -16 -32 -4 -53 22 -38 26 13 39 -1 39 -43 0 -22 -5 -28 -22 -28 -17 0
-19 -3 -10 -12 9 -9 15 -9 24 0 7 7 23 12 36 12 18 0 23 -4 18 -16 -3 -9 -6
-20 -6 -26 0 -6 -6 -8 -13 -5 -9 3 -12 -4 -11 -22 2 -41 3 -41 28 -41 18 0 27
-9 40 -40 9 -22 22 -40 30 -40 8 0 17 -9 21 -19 10 -31 54 -41 106 -24 24 9
47 20 51 26 3 6 20 12 36 13 33 2 72 20 72 34 0 4 15 12 33 15 17 4 48 14 67
23 19 8 37 16 40 17 3 0 30 7 60 14 30 8 62 19 70 26 8 7 31 16 50 20 19 4 48
14 64 22 22 11 34 13 47 5 13 -8 24 -5 52 15 29 21 38 23 57 13 17 -9 19 -14
9 -26 -6 -8 -17 -14 -23 -14 -6 0 -17 -10 -25 -21 -11 -18 -11 -23 0 -30 11
-6 7 -15 -16 -39 -30 -32 -51 -38 -57 -18 -4 10 -10 10 -31 1 -27 -13 -38 -43
-15 -43 6 0 8 -3 5 -7 -4 -4 -30 -6 -57 -4 -52 2 -67 -11 -27 -24 l22 -8 -24
-4 c-13 -3 -26 -13 -28 -24 -3 -10 -9 -19 -14 -19 -5 0 -12 0 -16 -1 -11 -1
-43 -31 -43 -40 0 -9 -48 -59 -57 -59 -3 0 -12 -8 -19 -17 -10 -15 -15 -16
-25 -5 -20 19 -28 15 -35 -22 -7 -42 -28 -52 -48 -25 -13 20 -14 19 -20 -6 -4
-16 -13 -25 -27 -25 -11 0 -18 -4 -15 -8 9 -14 -9 -31 -23 -22 -12 7 -11 11 2
25 10 9 17 21 17 26 0 15 -17 10 -24 -6 -3 -8 -15 -15 -26 -15 -30 0 -58 -29
-40 -40 9 -6 0 -12 -28 -21 -23 -7 -42 -17 -43 -23 -1 -24 -109 -89 -240 -145
-26 -10 -66 -32 -90 -48 -24 -15 -54 -32 -67 -38 l-22 -10 25 -27 c14 -16 30
-28 34 -28 5 0 11 -9 14 -21 3 -12 11 -19 19 -17 7 3 28 -6 47 -19 18 -13 44
-23 57 -23 13 0 32 -9 42 -20 16 -17 99 -38 175 -43 9 -1 17 -5 17 -9 0 -4 72
-8 160 -8 111 0 160 3 160 11 0 7 10 9 25 7 14 -3 28 -1 31 3 3 5 16 6 29 3
12 -3 26 -1 29 4 5 8 77 15 163 14 14 0 25 10 33 28 12 29 38 35 153 33 26 0
47 4 47 10 0 5 8 6 17 3 9 -4 19 -2 22 3 3 5 24 10 46 12 28 2 47 11 63 28
l23 26 -6 -30 c-3 -16 -8 -38 -11 -47 -10 -35 13 -17 39 30 15 26 41 63 59 82
18 19 60 71 93 115 32 44 65 87 72 95 13 15 131 182 185 262 31 46 77 91 173
168 38 30 81 66 96 80 15 14 51 43 80 65 28 22 68 55 88 73 20 18 61 49 91 69
30 20 80 57 110 83 70 60 85 67 151 75 92 11 151 34 184 72 l30 34 115 -9 c63
-6 141 -8 173 -5 l58 6 -22 23 c-16 17 -18 24 -8 24 12 0 12 2 -1 10 -12 8
-12 12 0 36 8 14 13 37 12 50 -2 13 4 39 13 57 11 23 15 55 14 115 -1 45 1 85
5 89 3 3 6 46 6 93 0 66 -4 91 -15 100 -8 7 -15 23 -15 36 0 13 -4 24 -10 24
-5 0 -10 9 -10 19 0 11 -5 23 -10 26 -6 4 -8 11 -5 16 4 5 1 9 -5 9 -6 0 -8 4
-5 10 3 5 1 18 -5 29 -7 14 -7 27 2 45 9 22 8 28 -9 43 -11 10 -28 33 -37 51
-9 17 -21 32 -26 32 -6 0 -10 11 -10 24 0 15 -7 26 -20 29 -12 3 -20 14 -20
26 0 12 -4 21 -9 21 -5 0 -11 12 -13 28 -2 16 -12 31 -25 37 -13 6 -25 23 -30
44 -6 26 -15 37 -33 41 -14 3 -25 10 -26 15 -3 25 -27 74 -38 78 -8 3 -16 17
-20 31 -7 28 -44 76 -59 76 -14 0 -67 53 -67 68 0 25 -34 51 -122 92 -16 8
-28 20 -28 28 0 18 -29 41 -52 42 -10 0 -22 9 -28 20 -6 12 -21 20 -35 20 -14
0 -29 8 -34 19 -6 10 -26 22 -45 25 -20 4 -39 13 -43 20 -9 15 -78 49 -99 49
-7 0 -12 4 -11 9 2 11 -64 38 -109 45 -25 4 -32 0 -41 -20 -6 -14 -8 -28 -3
-33 18 -18 72 -190 71 -226 0 -10 4 -18 8 -18 5 0 17 -24 26 -52 26 -79 54
-208 45 -208 -5 0 -12 20 -15 45 -4 24 -13 50 -21 56 -8 6 -14 19 -14 28 0 10
-6 25 -13 35 -13 18 -15 18 -35 -5 -27 -29 -27 -32 1 -44 23 -11 30 -46 10
-52 -23 -8 -54 58 -51 109 2 27 6 48 11 48 4 0 7 -7 7 -17 0 -9 3 -13 7 -10 3
4 1 17 -6 30 -7 13 -11 27 -10 33 5 16 -21 54 -38 54 -12 0 -14 -7 -10 -30 7
-34 -1 -63 -14 -54 -5 3 -9 13 -9 23 0 10 -7 24 -16 32 -9 8 -15 26 -13 48 2
48 -9 73 -31 66 -26 -8 -45 22 -46 77 -2 44 -6 52 -40 79 -43 34 -52 50 -53
95 -1 16 -5 34 -11 40 -5 5 -12 23 -14 39 -5 41 -15 62 -31 69 -7 2 -23 25
-34 50 -14 32 -26 46 -40 46 -11 0 -22 9 -26 20 -8 25 -53 27 -62 3z m137
-183 c0 -11 -7 -20 -15 -20 -8 0 -15 9 -15 20 0 11 7 20 15 20 8 0 15 -9 15
-20z m-56 -63 c8 -21 7 -30 -3 -37 -29 -18 -54 10 -44 50 8 29 35 22 47 -13z
m76 -23 c0 -8 -4 -14 -10 -14 -5 0 -10 9 -10 21 0 11 5 17 10 14 6 -3 10 -13
10 -21z m-375 -83 c-10 -26 -27 4 -19 34 l7 29 9 -24 c5 -13 6 -30 3 -39z
m125 -311 c0 -5 -4 -10 -10 -10 -5 0 -10 5 -10 10 0 6 5 10 10 10 6 0 10 -4
10 -10z m62 -123 c-6 -26 -21 -47 -33 -47 -13 0 -11 45 3 75 11 24 13 25 24
10 7 -9 9 -26 6 -38z m-15 -79 c-3 -8 -6 -5 -6 6 -1 11 2 17 5 13 3 -3 4 -12
1 -19z m-12 -69 c-6 -33 -15 -36 -15 -6 0 15 4 27 9 27 6 0 8 -10 6 -21z
m-315 -1609 c0 -11 -7 -20 -15 -20 -13 0 -14 4 -5 20 6 11 13 20 15 20 3 0 5
-9 5 -20z"/>
<path d="M2398 4414 c-2 -10 -1 -30 2 -44 6 -24 7 -24 13 -4 4 12 4 32 -1 44
-8 22 -9 22 -14 4z"/>
<path d="M3370 4417 c0 -8 6 -14 14 -14 8 0 12 6 9 14 -3 7 -9 13 -14 13 -5 0
-9 -6 -9 -13z"/>
<path d="M6770 4165 c0 -8 5 -15 10 -15 6 0 10 7 10 15 0 8 -4 15 -10 15 -5 0
-10 -7 -10 -15z"/>
<path d="M6857 4173 c-14 -14 -6 -34 18 -43 14 -5 25 -14 25 -19 0 -6 12 -6
32 1 l33 12 -31 12 c-17 7 -36 20 -43 28 -15 17 -24 20 -34 9z"/>
<path d="M7012 4097 c-12 -6 -25 -21 -29 -35 -3 -13 -9 -19 -12 -13 -4 6 -11
3 -19 -9 -6 -11 -8 -21 -2 -25 5 -3 11 -1 15 5 7 12 65 13 83 1 9 -5 15 -36
18 -84 5 -74 -5 -104 -24 -72 -7 14 -10 12 -19 -8 -17 -36 18 -91 53 -84 26 5
35 -13 31 -63 -1 -15 3 -24 10 -23 20 4 55 -76 64 -142 4 -33 12 -80 19 -105
6 -25 15 -64 19 -86 7 -37 6 -41 -11 -36 -10 2 -18 -1 -18 -7 0 -6 5 -11 10
-11 13 0 13 -56 -1 -81 -8 -16 -7 -26 6 -45 21 -33 36 -30 29 5 -7 34 10 49
33 30 12 -11 14 -26 9 -82 -4 -40 -2 -76 4 -87 8 -15 6 -21 -7 -28 -18 -10
-19 -31 -8 -157 l6 -70 -19 30 c-37 59 -64 66 -91 23 -17 -27 -24 -85 -11 -93
6 -3 14 3 18 15 8 21 9 21 23 4 11 -13 11 -18 2 -21 -7 -3 -13 -9 -13 -15 0
-5 8 -7 19 -3 15 5 20 -3 29 -47 11 -56 3 -79 -21 -59 -19 15 -34 -3 -39 -44
-2 -24 -8 -31 -29 -33 -28 -3 -39 15 -39 68 0 14 -9 39 -20 55 -11 17 -20 39
-20 50 -1 32 -24 55 -48 48 -30 -7 -29 -44 2 -70 18 -16 23 -29 21 -54 -2 -19
-4 -40 -4 -47 -1 -8 -8 -11 -19 -8 -15 5 -21 -2 -30 -31 -7 -21 -13 -49 -14
-61 -4 -30 -60 -52 -103 -40 -18 5 -32 3 -36 -3 -4 -6 -24 -11 -45 -10 -22 1
-52 2 -68 3 -18 0 -35 -7 -42 -17 -13 -17 -15 -17 -32 -2 -20 19 -97 23 -107
7 -3 -5 -16 -10 -29 -10 -12 0 -31 -6 -41 -14 -16 -12 -17 -16 -6 -30 11 -14
11 -16 -3 -16 -9 0 -21 -12 -27 -27 l-10 -28 -19 25 c-11 14 -20 33 -20 43 0
34 -28 9 -54 -48 -19 -44 -81 -95 -115 -95 -30 0 -52 -19 -85 -75 -34 -55
-114 -133 -149 -144 -18 -5 -95 -17 -172 -27 -164 -19 -179 -24 -164 -58 9
-20 7 -32 -16 -70 -25 -42 -66 -69 -82 -52 -3 3 11 37 31 76 30 57 35 73 26
90 -11 20 -11 20 -40 -2 -16 -11 -34 -35 -40 -51 -12 -36 -38 -67 -55 -67 -9
0 -6 18 8 61 18 55 18 62 4 77 -11 11 -20 12 -29 5 -7 -6 -26 -13 -43 -17 -16
-4 -40 -17 -53 -29 -26 -24 -40 -28 -103 -28 -39 0 -51 -5 -76 -32 -45 -47
-60 -119 -44 -201 7 -36 10 -70 6 -76 -4 -7 -9 -78 -11 -159 -2 -118 -9 -175
-35 -299 -26 -121 -30 -155 -20 -165 7 -7 47 -13 94 -15 73 -4 84 -7 100 -29
19 -24 17 -53 -4 -53 -6 0 -9 6 -6 14 3 8 -4 22 -15 33 -20 16 -21 17 -15 1 4
-11 2 -18 -6 -18 -8 0 -7 -3 2 -9 22 -14 -3 -39 -45 -47 -42 -8 -49 -2 -33 25
7 11 11 23 7 26 -14 14 -113 -2 -129 -21 -9 -11 -5 -16 17 -25 16 -7 37 -11
47 -10 9 1 17 -2 17 -8 0 -21 -13 -41 -26 -41 -27 0 -14 -19 21 -30 19 -6 35
-15 35 -20 0 -9 135 -80 152 -80 6 0 26 -14 45 -30 18 -17 42 -30 52 -30 10 0
24 -6 30 -14 6 -8 33 -17 59 -21 26 -4 53 -12 61 -18 7 -6 20 -12 30 -13 83
-12 107 -17 116 -24 9 -7 57 -16 138 -26 16 -2 33 -6 38 -10 5 -3 51 -8 102
-10 50 -3 94 -9 97 -12 3 -4 71 -8 152 -10 133 -3 147 -2 157 15 6 10 11 12
11 6 0 -19 13 -16 39 8 13 12 30 19 42 16 10 -3 22 -1 25 4 3 5 9 7 14 4 5 -3
20 -1 33 4 14 6 51 12 82 15 31 3 62 9 68 13 6 4 21 7 32 8 45 2 125 18 125
26 0 4 12 6 27 3 14 -3 29 -1 32 4 9 14 107 42 131 37 11 -2 22 0 25 5 3 5 13
6 21 3 8 -3 26 0 39 7 18 10 28 10 37 2 9 -7 19 -7 28 -2 8 6 41 10 72 10 33
0 58 5 60 11 3 9 9 9 25 1 17 -9 22 -9 27 4 4 11 14 15 31 12 13 -3 22 -1 19
3 -5 8 19 14 40 10 5 -1 12 3 16 8 4 7 17 8 38 2 19 -6 34 -6 38 0 3 5 18 8
34 7 15 -1 34 3 42 9 8 7 23 12 33 13 50 1 75 6 87 18 6 6 16 12 21 12 5 0 15
7 23 15 9 8 30 16 47 17 18 0 37 2 44 2 7 1 19 10 27 21 13 17 18 18 36 7 14
-8 26 -10 33 -4 11 9 33 14 92 24 11 2 28 16 39 31 10 15 24 26 31 23 7 -2 25
4 41 15 16 10 36 19 45 19 9 0 26 9 39 20 13 11 31 20 41 20 12 0 21 10 25 27
8 30 26 53 42 53 6 0 13 6 16 13 4 9 8 8 17 -4 9 -13 17 -14 35 -5 13 6 24 18
24 27 0 22 34 59 54 59 9 0 25 9 37 21 11 11 30 24 42 29 17 7 18 9 5 9 -22 1
-24 21 -3 21 13 0 15 88 15 735 0 404 -4 735 -8 735 -4 0 -16 23 -27 50 -11
28 -25 50 -32 50 -15 0 -36 37 -28 49 7 13 -5 41 -17 41 -17 0 -37 33 -38 58
0 23 -48 75 -104 115 -16 11 -26 27 -26 43 0 25 -34 63 -56 64 -7 0 -14 9 -17
20 -3 11 -17 24 -31 30 -14 5 -26 13 -26 17 0 5 -10 19 -23 33 -13 14 -26 33
-30 43 -3 9 -13 17 -21 17 -9 0 -20 9 -26 21 -6 11 -19 19 -28 17 -9 -1 -36
10 -59 25 -24 15 -49 27 -57 27 -7 0 -17 11 -20 25 -4 14 -13 25 -21 25 -8 0
-15 5 -15 10 0 6 -7 10 -15 10 -8 0 -24 9 -35 20 -11 11 -28 20 -38 20 -10 0
-23 5 -29 11 -14 14 -49 35 -85 51 -16 7 -28 16 -28 21 0 4 -4 6 -10 2 -5 -3
-16 5 -25 18 -10 17 -33 28 -73 37 -38 9 -66 23 -84 42 -14 15 -35 28 -46 28
-11 0 -37 16 -58 35 -20 19 -40 35 -45 35 -4 0 -11 10 -14 23 -4 12 -15 31
-24 42 -9 11 -30 45 -46 75 -51 98 -106 171 -123 161 -8 -5 -29 -5 -46 -1 -17
4 -42 2 -54 -3z m508 -698 c0 -5 -4 -9 -10 -9 -5 0 -10 7 -10 16 0 8 5 12 10
9 6 -3 10 -10 10 -16z m-25 -439 c0 -7 -6 -15 -12 -17 -8 -3 -13 4 -13 17 0
13 5 20 13 18 6 -3 12 -11 12 -18z m-159 -237 c-3 -24 -10 -52 -15 -61 -9 -15
-10 -15 -16 3 -4 11 -12 31 -18 43 -9 20 -8 25 6 33 10 6 17 22 17 42 l0 31
16 -23 c12 -17 15 -35 10 -68z m-636 -357 c0 -11 -19 -15 -25 -6 -3 5 1 10 9
10 9 0 16 -2 16 -4z m-60 -55 c0 -20 -19 -41 -37 -41 -18 0 -16 30 3 51 19 21
34 16 34 -10z m-1441 -763 c0 -7 -4 -22 -8 -33 -8 -19 -8 -19 -15 2 -8 24 -1
43 15 43 5 0 9 -6 8 -12z m224 -627 c14 -5 9 -9 -21 -17 -41 -11 -88 -1 -77
16 7 11 71 12 98 1z"/>
<path d="M6780 4065 c-10 -12 -10 -18 0 -30 20 -24 45 -18 57 15 11 29 10 30
-17 30 -15 0 -33 -7 -40 -15z"/>
<path d="M6966 3684 c-4 -15 -2 -32 3 -37 8 -8 11 0 11 26 0 44 -5 47 -14 11z"/>
<path d="M6953 3326 c-25 -25 -47 -66 -39 -73 12 -12 56 17 56 37 0 15 7 20
25 20 31 0 32 12 2 26 -18 8 -27 6 -44 -10z"/>
<path d="M7045 3207 c-8 -31 -4 -57 10 -60 14 -3 19 63 6 76 -7 7 -12 2 -16
-16z"/>
<path d="M7091 3114 c-18 -8 -40 -13 -47 -10 -20 8 -26 -10 -10 -26 18 -19 97
-15 110 5 10 15 2 48 -11 46 -4 0 -23 -7 -42 -15z"/>
<path d="M7220 3085 c0 -8 5 -15 10 -15 6 0 10 7 10 15 0 8 -4 15 -10 15 -5 0
-10 -7 -10 -15z"/>
<path d="M7120 2991 c0 -6 5 -13 10 -16 6 -3 10 1 10 9 0 9 -4 16 -10 16 -5 0
-10 -4 -10 -9z"/>
<path d="M7126 2877 c-5 -15 -6 -31 -2 -34 11 -11 18 5 14 34 l-4 28 -8 -28z"/>
<path d="M4595 950 c19 -21 45 -27 45 -10 0 11 -33 30 -51 30 -8 0 -5 -7 6
-20z"/>
<path d="M4790 922 c0 -20 52 -52 84 -52 16 0 21 6 21 23 -2 37 -13 45 -60 45
-35 0 -45 -3 -45 -16z"/>
<path d="M4940 920 c0 -5 5 -10 11 -10 5 0 7 5 4 10 -3 6 -8 10 -11 10 -2 0
-4 -4 -4 -10z"/>
</g>
</svg>
